<?xml version="1.0" encoding="utf-8"?>
<!-- Generator: Adobe Illustrator 17.0.0, SVG Export Plug-In . SVG Version: 6.00 Build 0)  -->
<!DOCTYPE svg PUBLIC "-//W3C//DTD SVG 1.1//EN" "http://www.w3.org/Graphics/SVG/1.1/DTD/svg11.dtd">
<svg version="1.1" id="Layer_1" xmlns="http://www.w3.org/2000/svg" xmlns:xlink="http://www.w3.org/1999/xlink" x="0px" y="0px"
	 width="80px" height="80px" viewBox="0 0 80 80" enable-background="new 0 0 80 80" xml:space="preserve">
<path fill="#252625" stroke="#252625" stroke-width="9" stroke-miterlimit="10" d="M58.938,18.058l-18.66,18.66l-18.64-18.641
	c-1.03-1.03-2.702-1.03-3.732,0s-1.03,2.702,0,3.732l18.64,18.641L17.888,59.108c-1.03,1.03-1.012,2.72,0.018,3.75
	c1.03,1.03,2.683,1.012,3.714-0.018l18.658-18.658l18.677,18.677c1.03,1.03,2.702,1.03,3.732,0s1.03-2.702,0-3.732L44.01,40.449
	L62.669,21.79c1.03-1.03,1.049-2.683,0.018-3.714C61.657,17.047,59.967,17.029,58.938,18.058z"/>
</svg>
