<?xml version="1.0" encoding="utf-8"?>
<!-- Generator: Adobe Illustrator 17.0.0, SVG Export Plug-In . SVG Version: 6.00 Build 0)  -->
<!DOCTYPE svg PUBLIC "-//W3C//DTD SVG 1.1//EN" "http://www.w3.org/Graphics/SVG/1.1/DTD/svg11.dtd">
<svg version="1.1" id="Layer_1" xmlns="http://www.w3.org/2000/svg" xmlns:xlink="http://www.w3.org/1999/xlink" x="0px" y="0px"
	 width="320px" height="140px" viewBox="0 0 320 140" enable-background="new 0 0 320 140" xml:space="preserve">
<g>
	<g>
		<path fill="#252625" d="M2,16.118h23.814v86.098h44.118v21.982H2V16.118z"/>
		<path fill="#252625" d="M126.72,114.887h-0.307c-2.545,3.969-5.93,6.819-10.151,8.549c-4.225,1.729-8.678,2.595-13.357,2.595
			c-3.461,0-6.793-0.484-9.999-1.45c-3.206-0.966-6.03-2.416-8.473-4.351c-2.442-1.933-4.377-4.324-5.801-7.175
			c-1.427-2.849-2.137-6.156-2.137-9.923c0-4.274,0.787-7.886,2.366-10.839c1.577-2.95,3.714-5.393,6.412-7.327
			c2.695-1.933,5.774-3.435,9.235-4.504c3.459-1.068,7.046-1.855,10.763-2.366c3.714-0.508,7.428-0.813,11.144-0.916
			c3.713-0.1,7.149-0.152,10.305-0.152c0-4.069-1.451-7.301-4.352-9.694c-2.9-2.39-6.335-3.587-10.304-3.587
			c-3.766,0-7.201,0.79-10.304,2.366c-3.106,1.579-5.877,3.74-8.32,6.488L81.227,60.083c4.274-3.969,9.26-6.946,14.96-8.93
			c5.699-1.984,11.602-2.977,17.708-2.977c6.716,0,12.236,0.84,16.564,2.519c4.324,1.679,7.785,4.148,10.381,7.404
			c2.594,3.258,4.4,7.251,5.418,11.984c1.016,4.732,1.527,10.204,1.527,16.41v37.706H126.72V114.887z M121.071,91.683
			c-1.732,0-3.893,0.076-6.488,0.229c-2.595,0.153-5.09,0.587-7.48,1.298c-2.392,0.713-4.427,1.782-6.106,3.206
			c-1.679,1.426-2.519,3.411-2.519,5.953c0,2.748,1.169,4.785,3.511,6.106c2.34,1.324,4.782,1.984,7.328,1.984
			c2.237,0,4.4-0.305,6.488-0.916c2.084-0.61,3.943-1.474,5.572-2.595c1.627-1.119,2.924-2.543,3.893-4.274
			c0.967-1.729,1.451-3.764,1.451-6.106v-4.885H121.071z"/>
	</g>
	<linearGradient id="SVGID_1_" gradientUnits="userSpaceOnUse" x1="309.3672" y1="69.618" x2="188.1333" y2="69.618">
		<stop  offset="0" style="stop-color:#FFFFFF"/>
		<stop  offset="1" style="stop-color:#000000"/>
	</linearGradient>
	<linearGradient id="SVGID_2_" gradientUnits="userSpaceOnUse" x1="248.7503" y1="138.8503" x2="248.7503" y2="0.3857">
		<stop  offset="0" style="stop-color:#D32752"/>
		<stop  offset="1" style="stop-color:#4358A6"/>
	</linearGradient>
	<path fill="url(#SVGID_1_)" stroke="url(#SVGID_2_)" stroke-width="17.2289" stroke-miterlimit="10" d="M243.651,14.052v50.517
		l-50.465-0.002c-2.789,0-5.052,2.263-5.052,5.052c0,2.789,2.263,5.052,5.052,5.052l50.465,0.002v50.511
		c0,2.789,2.312,5.052,5.1,5.052c2.789,0,5.002-2.263,5.002-5.052V74.673h50.563c2.789,0,5.052-2.263,5.052-5.052
		c0-2.789-2.263-5.052-5.052-5.052l-50.565-0.002V14.052c0-2.789-2.211-5.052-5.002-5.052
		C245.961,9.002,243.651,11.265,243.651,14.052z"/>
</g>
</svg>
