<?xml version="1.0" encoding="utf-8"?>
<!-- Generator: Adobe Illustrator 17.0.0, SVG Export Plug-In . SVG Version: 6.00 Build 0)  -->
<!DOCTYPE svg PUBLIC "-//W3C//DTD SVG 1.1//EN" "http://www.w3.org/Graphics/SVG/1.1/DTD/svg11.dtd">
<svg version="1.1"
	 id="Layer_1" xmlns:cc="http://creativecommons.org/ns#" xmlns:svg="http://www.w3.org/2000/svg" xmlns:inkscape="http://www.inkscape.org/namespaces/inkscape" xmlns:sodipodi="http://sodipodi.sourceforge.net/DTD/sodipodi-0.dtd" xmlns:rdf="http://www.w3.org/1999/02/22-rdf-syntax-ns#" xmlns:dc="http://purl.org/dc/elements/1.1/"
	 xmlns="http://www.w3.org/2000/svg" xmlns:xlink="http://www.w3.org/1999/xlink" x="0px" y="0px" width="344px" height="368px"
	 viewBox="78 0 344 368" enable-background="new 78 0 344 368" xml:space="preserve">
<path fill="#4054B2" d="M242.75,2.37l-160,120.002c-2.956,2.241-4.769,5.916-4.75,9.625V356c0.001,6.283,5.717,12,12,12h108
	c6.283-0.001,11.999-5.717,12-12V255.999c0-22.368,17.632-40,40-40s40,17.632,40,40V356c0.001,6.283,5.717,12,12,12h108
	c6.283-0.001,11.999-5.717,12-12V131.997c0-3.709-1.794-7.384-4.75-9.625L257.25,2.37C252.01-0.958,247.642-0.618,242.75,2.37z
	 M250,26.995l148,111.002v206.003h-84v-88.001c0-35.249-28.752-64.001-64-64.001s-64,28.752-64,64.001v88.001h-84V137.996
	L250,26.995z"/>
</svg>
