<?xml version="1.0" encoding="utf-8"?>
<!-- Generator: Adobe Illustrator 17.0.0, SVG Export Plug-In . SVG Version: 6.00 Build 0)  -->
<!DOCTYPE svg PUBLIC "-//W3C//DTD SVG 1.1//EN" "http://www.w3.org/Graphics/SVG/1.1/DTD/svg11.dtd">
<svg version="1.1" id="Layer_1" xmlns="http://www.w3.org/2000/svg" xmlns:xlink="http://www.w3.org/1999/xlink" x="0px" y="0px"
	 width="80px" height="80px" viewBox="0 0 80 80" enable-background="new 0 0 80 80" xml:space="preserve">
<path fill="#4054B2" stroke="#4054B2" stroke-width="9" stroke-miterlimit="10" d="M37.634,11.436l0,26.389l-26.362-0.001
	c-1.457,0-2.639,1.182-2.639,2.639s1.182,2.639,2.639,2.639l26.362,0.001v26.386c0,1.457,1.208,2.639,2.664,2.639
	c1.457,0,2.613-1.182,2.613-2.639l0-26.386h26.413c1.457,0,2.639-1.182,2.639-2.639s-1.182-2.639-2.639-2.639l-26.414-0.001V11.436
	c0-1.457-1.155-2.639-2.613-2.639C38.841,8.798,37.634,9.98,37.634,11.436z"/>
</svg>
